<?xml version="1.0" encoding="iso-8859-1"?>
<!-- Generator: Adobe Illustrator 18.0.0, SVG Export Plug-In . SVG Version: 6.00 Build 0)  -->
<!DOCTYPE svg PUBLIC "-//W3C//DTD SVG 1.1//EN" "http://www.w3.org/Graphics/SVG/1.1/DTD/svg11.dtd">
<svg version="1.1" id="Capa_1" xmlns="http://www.w3.org/2000/svg" xmlns:xlink="http://www.w3.org/1999/xlink" x="0px" y="0px"
	 viewBox="0 0 231.958 231.958" style="enable-background:new 0 0 231.958 231.958;" xml:space="preserve">
<g>
	<g>
		<path style="fill:#FFD385;" d="M214.998,109.127H16.96c-9.366,0-16.96,7.002-16.96,15.641v11.375
			c0,8.638,7.594,15.641,16.96,15.641h198.038c9.367,0,16.96-7.003,16.96-15.641v-11.375
			C231.958,116.129,224.365,109.127,214.998,109.127z"/>
		<path style="fill:#FCBB6D;" d="M85.828,119.92c0,16.179,13.499,29.294,30.15,29.294c16.652,0,30.151-13.115,30.151-29.294
			c0-3.816-0.773-7.45-2.14-10.793H87.968C86.602,112.469,85.828,116.104,85.828,119.92z"/>
		<path style="fill:#FCBB6D;" d="M161.975,109.127c-1.365,3.343-2.14,6.977-2.14,10.793c0,16.179,13.499,29.294,30.151,29.294
			c16.652,0,30.151-13.115,30.151-29.294c0-3.707-0.738-7.239-2.031-10.504c-1.011-0.173-2.044-0.289-3.108-0.289H161.975z"/>
		<path style="fill:#FCBB6D;" d="M13.851,109.416c-1.293,3.264-2.031,6.797-2.031,10.504c0,16.179,13.5,29.294,30.151,29.294
			c16.652,0,30.151-13.115,30.151-29.294c0-3.816-0.774-7.45-2.14-10.793H16.96C15.896,109.127,14.862,109.242,13.851,109.416z"/>
		<g>
			<path style="fill:#F78F33;" d="M18.673,117.521c0,12.868,10.432,23.299,23.299,23.299V80.174
				C29.104,80.174,18.673,104.653,18.673,117.521z"/>
			<path style="fill:#D97F2D;" d="M41.972,80.174v60.645c12.867,0,23.299-10.432,23.299-23.299
				C65.271,104.653,54.839,80.174,41.972,80.174z"/>
		</g>
		<g>
			<path style="fill:#F78F33;" d="M92.681,117.521c0,12.868,10.431,23.299,23.298,23.299V80.174
				C103.111,80.174,92.681,104.653,92.681,117.521z"/>
			<path style="fill:#D97F2D;" d="M115.979,80.174v60.645c12.868,0,23.299-10.432,23.299-23.299
				C139.277,104.653,128.847,80.174,115.979,80.174z"/>
		</g>
		<g>
			<path style="fill:#F78F33;" d="M166.688,117.521c0,12.868,10.432,23.299,23.299,23.299V80.174
				C177.119,80.174,166.688,104.653,166.688,117.521z"/>
			<path style="fill:#D97F2D;" d="M189.986,80.174v60.645c12.867,0,23.299-10.432,23.299-23.299
				C213.285,104.653,202.854,80.174,189.986,80.174z"/>
		</g>
	</g>
</g>
<g>
</g>
<g>
</g>
<g>
</g>
<g>
</g>
<g>
</g>
<g>
</g>
<g>
</g>
<g>
</g>
<g>
</g>
<g>
</g>
<g>
</g>
<g>
</g>
<g>
</g>
<g>
</g>
<g>
</g>
</svg>
