<?xml version="1.0" encoding="iso-8859-1"?>
<!-- Generator: Adobe Illustrator 18.0.0, SVG Export Plug-In . SVG Version: 6.00 Build 0)  -->
<!DOCTYPE svg PUBLIC "-//W3C//DTD SVG 1.1//EN" "http://www.w3.org/Graphics/SVG/1.1/DTD/svg11.dtd">
<svg version="1.1" id="Capa_1" xmlns="http://www.w3.org/2000/svg" xmlns:xlink="http://www.w3.org/1999/xlink" x="0px" y="0px"
	 viewBox="0 0 174.717 174.717" style="enable-background:new 0 0 174.717 174.717;" xml:space="preserve">
<g>
	<path style="fill:#FFC417;" d="M38.414,174.717H15.488c0,0,4.893-68.264,27.305-81.916c22.411-13.653,44.565-14.426,44.565-14.426
		v96.342H38.414z"/>
	<path style="fill:#FAA220;" d="M87.358,35.801V0C53.935,0,47.366,40.765,47.366,40.765L87.358,35.801z"/>
	<path style="fill:#FFD385;" d="M87.358,90.61V47.205H51.101C51.101,70.293,55.952,90.61,87.358,90.61z"/>
	<path style="fill:#FFC417;" d="M87.358,49.078H26.307c0,0-4.829-13.277,61.052-13.277V49.078z"/>
	<path style="fill:#3A8FCD;" d="M51.938,85.716v34.776c0,0,3.22,5.538,35.42,5.538v48.687H38.414V93.702
		C38.414,93.702,47.366,87.262,51.938,85.716z"/>
	<circle style="fill:#FFC417;" cx="56.833" cy="136.721" r="4.379"/>
	<circle style="fill:#FFC417;" cx="56.833" cy="161.193" r="4.379"/>
	<path style="fill:#FAA220;" d="M136.302,174.717h22.927c0,0-4.895-68.264-27.306-81.916
		c-22.411-13.653-44.564-14.426-44.564-14.426v96.342H136.302z"/>
	<path style="fill:#F68B23;" d="M87.358,35.801V0c33.424,0,39.992,40.765,39.992,40.765L87.358,35.801z"/>
	<path style="fill:#FCBB6D;" d="M87.358,90.61V47.205h36.257C123.615,70.293,118.764,90.61,87.358,90.61z"/>
	<path style="fill:#FAA220;" d="M87.358,49.078h61.051c0,0,4.83-13.277-61.051-13.277V49.078z"/>
	<path style="fill:#3581B9;" d="M122.778,85.716v34.776c0,0-3.221,5.538-35.42,5.538v48.687h48.943V93.702
		C136.302,93.702,127.351,87.262,122.778,85.716z"/>
	<circle style="fill:#FAA220;" cx="117.884" cy="136.721" r="4.379"/>
	<circle style="fill:#FAA220;" cx="117.884" cy="161.193" r="4.379"/>
</g>
<g>
</g>
<g>
</g>
<g>
</g>
<g>
</g>
<g>
</g>
<g>
</g>
<g>
</g>
<g>
</g>
<g>
</g>
<g>
</g>
<g>
</g>
<g>
</g>
<g>
</g>
<g>
</g>
<g>
</g>
</svg>
