<?xml version="1.0" encoding="iso-8859-1"?>
<!-- Generator: Adobe Illustrator 18.0.0, SVG Export Plug-In . SVG Version: 6.00 Build 0)  -->
<!DOCTYPE svg PUBLIC "-//W3C//DTD SVG 1.1//EN" "http://www.w3.org/Graphics/SVG/1.1/DTD/svg11.dtd">
<svg version="1.1" id="Capa_1" xmlns="http://www.w3.org/2000/svg" xmlns:xlink="http://www.w3.org/1999/xlink" x="0px" y="0px"
	 viewBox="0 0 142.082 142.082" style="enable-background:new 0 0 142.082 142.082;" xml:space="preserve">
<g>
	<rect x="12.041" y="35.779" style="fill-rule:evenodd;clip-rule:evenodd;fill:#DE8A41;" width="118" height="19"/>
	<rect x="12.041" y="44.779" style="fill-rule:evenodd;clip-rule:evenodd;fill:#A54D00;" width="118" height="10"/>
	<rect x="12.041" y="84.779" style="fill-rule:evenodd;clip-rule:evenodd;fill:#DE8A41;" width="118" height="19"/>
	<rect x="12.041" y="93.779" style="fill-rule:evenodd;clip-rule:evenodd;fill:#A54D00;" width="118" height="10"/>
	<g>
		<path style="fill-rule:evenodd;clip-rule:evenodd;fill:#D66D11;" d="M41.367,0h-0.006c-4.89,0-8.853,4.353-8.853,9.729v122.625
			c0,5.373,3.963,9.729,8.853,9.729h0.006V0z"/>
		<path style="fill-rule:evenodd;clip-rule:evenodd;fill:#A54D00;" d="M41.354,0h0.006c4.89,0,8.853,4.353,8.853,9.729v122.625
			c0,5.373-3.963,9.729-8.853,9.729h-0.006V0z"/>
		<ellipse style="fill-rule:evenodd;clip-rule:evenodd;fill:#743B0E;" cx="41.175" cy="45.156" rx="2.326" ry="2.557"/>
		<ellipse style="fill-rule:evenodd;clip-rule:evenodd;fill:#743B0E;" cx="41.175" cy="94.69" rx="2.326" ry="2.557"/>
	</g>
	<g>
		<path style="fill-rule:evenodd;clip-rule:evenodd;fill:#D66D11;" d="M107.367,0h-0.006c-4.89,0-8.853,4.353-8.853,9.729v122.625
			c0,5.373,3.963,9.729,8.853,9.729h0.006V0z"/>
		<path style="fill-rule:evenodd;clip-rule:evenodd;fill:#A54D00;" d="M107.354,0h0.006c4.89,0,8.853,4.353,8.853,9.729v122.625
			c0,5.373-3.963,9.729-8.853,9.729h-0.006V0z"/>
		<ellipse style="fill-rule:evenodd;clip-rule:evenodd;fill:#743B0E;" cx="107.175" cy="45.156" rx="2.326" ry="2.557"/>
		<ellipse style="fill-rule:evenodd;clip-rule:evenodd;fill:#743B0E;" cx="107.175" cy="94.69" rx="2.326" ry="2.557"/>
	</g>
	<g>
		<ellipse style="fill-rule:evenodd;clip-rule:evenodd;fill:#743B0E;" cx="107.599" cy="45.156" rx="2.326" ry="2.557"/>
		<ellipse style="fill-rule:evenodd;clip-rule:evenodd;fill:#743B0E;" cx="107.599" cy="94.69" rx="2.326" ry="2.557"/>
	</g>
</g>
<g>
</g>
<g>
</g>
<g>
</g>
<g>
</g>
<g>
</g>
<g>
</g>
<g>
</g>
<g>
</g>
<g>
</g>
<g>
</g>
<g>
</g>
<g>
</g>
<g>
</g>
<g>
</g>
<g>
</g>
</svg>
