<?xml version="1.0" encoding="iso-8859-1"?>
<!-- Generator: Adobe Illustrator 18.0.0, SVG Export Plug-In . SVG Version: 6.00 Build 0)  -->
<!DOCTYPE svg PUBLIC "-//W3C//DTD SVG 1.1//EN" "http://www.w3.org/Graphics/SVG/1.1/DTD/svg11.dtd">
<svg version="1.1" id="Capa_1" xmlns="http://www.w3.org/2000/svg" xmlns:xlink="http://www.w3.org/1999/xlink" x="0px" y="0px"
	 viewBox="0 0 64.105 64.105" style="enable-background:new 0 0 64.105 64.105;" xml:space="preserve">
<g>
	<path style="fill:#CADC2E;" d="M30.66,42.252c2.057,2.055,2.883,4.559,1.848,5.594c-1.036,1.034-3.539,0.208-5.595-1.848
		c-2.055-2.053-3.087-6.835-3.087-6.835S28.606,40.197,30.66,42.252z"/>
	<path style="fill:#CADC2E;" d="M34.845,42.252c-2.056,2.055-2.882,4.559-1.847,5.594c1.035,1.034,3.539,0.208,5.595-1.848
		c2.055-2.053,3.086-6.835,3.086-6.835S36.9,40.197,34.845,42.252z"/>
	<path style="fill:#31BD4C;" d="M32.57,22.752c0-0.649,0.623-1.647,0.039-1.647h-0.22c-0.586,0-1.819,0.997-1.819,1.647v40.485
		c0,0.649,1.233,0.868,1.819,0.868h0.22c0.584,0-0.039-0.219-0.039-0.868V22.752z"/>
	<rect x="34.57" y="4.106" style="fill:#31BD4C;" width="2" height="10"/>
	<rect x="26.57" y="3.105" style="fill:#31BD4C;" width="2" height="10"/>
	<circle style="fill:#31BD4C;" cx="27.962" cy="2.786" r="2.787"/>
	<circle style="fill:#31BD4C;" cx="35.674" cy="3.751" r="2.787"/>
	<path style="fill:#FF8400;" d="M21.837,9.248c-0.003,0.109-0.016,0.215-0.016,0.324v11.51c0,5.65,4.58,10.232,10.231,10.232
		c5.651,0,10.231-4.582,10.231-10.232V9.572c0-0.109-0.013-0.215-0.017-0.324H21.837z"/>
</g>
<g>
</g>
<g>
</g>
<g>
</g>
<g>
</g>
<g>
</g>
<g>
</g>
<g>
</g>
<g>
</g>
<g>
</g>
<g>
</g>
<g>
</g>
<g>
</g>
<g>
</g>
<g>
</g>
<g>
</g>
</svg>
