<?xml version="1.0" encoding="iso-8859-1"?>
<!-- Generator: Adobe Illustrator 18.0.0, SVG Export Plug-In . SVG Version: 6.00 Build 0)  -->
<!DOCTYPE svg PUBLIC "-//W3C//DTD SVG 1.1//EN" "http://www.w3.org/Graphics/SVG/1.1/DTD/svg11.dtd">
<svg version="1.1" id="Capa_1" xmlns="http://www.w3.org/2000/svg" xmlns:xlink="http://www.w3.org/1999/xlink" x="0px" y="0px"
	 viewBox="0 0 64.045 64.045" style="enable-background:new 0 0 64.045 64.045;" xml:space="preserve">
<g>
	<path style="fill:#31BD4C;" d="M29.588,39.334c2.603,2.603,3.591,5.836,2.206,7.221c-1.386,1.384-4.618,0.396-7.22-2.206
		c-2.604-2.604-3.611-8.626-3.611-8.626S26.984,36.73,29.588,39.334z"/>
	<path style="fill:#31BD4C;" d="M29.588,29.692c2.603,2.605,3.591,5.837,2.206,7.223c-1.386,1.383-4.618,0.396-7.22-2.206
		c-2.604-2.605-3.611-8.627-3.611-8.627S26.984,27.091,29.588,29.692z"/>
	<path style="fill:#31BD4C;" d="M29.588,20.052c2.603,2.604,3.591,5.837,2.206,7.222c-1.386,1.385-4.618,0.397-7.22-2.205
		c-2.604-2.605-3.611-8.627-3.611-8.627S26.984,17.449,29.588,20.052z"/>
	<path style="fill:#31BD4C;" d="M34.457,39.334c-2.603,2.603-3.591,5.836-2.206,7.221c1.384,1.384,4.617,0.396,7.221-2.206
		c2.604-2.604,3.61-8.626,3.61-8.626S37.06,36.73,34.457,39.334z"/>
	<path style="fill:#31BD4C;" d="M34.457,29.692c-2.603,2.605-3.591,5.837-2.206,7.223c1.384,1.383,4.617,0.396,7.221-2.206
		c2.604-2.605,3.61-8.627,3.61-8.627S37.06,27.091,34.457,29.692z"/>
	<path style="fill:#31BD4C;" d="M34.457,20.052c-2.603,2.604-3.591,5.837-2.206,7.222c1.384,1.385,4.617,0.397,7.221-2.205
		c2.604-2.605,3.61-8.627,3.61-8.627S37.06,17.449,34.457,20.052z"/>
	<path style="fill:#31BD4C;" d="M32.11,63.081c0,0.532-0.432,0.964-0.965,0.964h-0.07c-0.533,0-0.965-0.432-0.965-0.964V9.009
		c0-0.532,0.432-0.964,0.965-0.964h0.07c0.533,0,0.965,0.432,0.965,0.964V63.081z"/>
	<circle style="fill:#FF5A58;" cx="31.722" cy="6.795" r="6.795"/>
</g>
<g>
</g>
<g>
</g>
<g>
</g>
<g>
</g>
<g>
</g>
<g>
</g>
<g>
</g>
<g>
</g>
<g>
</g>
<g>
</g>
<g>
</g>
<g>
</g>
<g>
</g>
<g>
</g>
<g>
</g>
</svg>
