<?xml version="1.0" encoding="iso-8859-1"?>
<!-- Generator: Adobe Illustrator 18.0.0, SVG Export Plug-In . SVG Version: 6.00 Build 0)  -->
<!DOCTYPE svg PUBLIC "-//W3C//DTD SVG 1.1//EN" "http://www.w3.org/Graphics/SVG/1.1/DTD/svg11.dtd">
<svg version="1.1" id="Capa_1" xmlns="http://www.w3.org/2000/svg" xmlns:xlink="http://www.w3.org/1999/xlink" x="0px" y="0px"
	 viewBox="0 0 106.348 106.348" style="enable-background:new 0 0 106.348 106.348;" xml:space="preserve">
<g>
	<path style="fill-rule:evenodd;clip-rule:evenodd;fill:#27C0F0;" d="M106.348,101.323l-2.607-33.191l2.44-28.479l0.151-20.426
		c0.014-1.984-1.597-3.617-3.58-3.633l0,0c-1.983-0.014-3.616,1.597-3.631,3.579l-0.149,20.496l-1.515,0.003l0.002-0.121
		l0.213-28.979c0.016-1.982-1.597-3.617-3.579-3.631l0,0c-1.983-0.015-3.616,1.596-3.63,3.58L90.25,39.498
		c-0.001,0.063,0,0.126,0.004,0.188l-1.569,0.002c0.036-0.193,0.055-0.396,0.055-0.599l0.224-30.433
		c0.015-1.983-1.595-3.616-3.579-3.631l0,0c-1.982-0.015-3.616,1.596-3.631,3.578L81.53,39.038
		c-0.001,0.229,0.019,0.451,0.059,0.668l-1.743,0.002c0.11-0.339,0.17-0.703,0.174-1.078l0.185-25.015
		c0.014-1.983-1.596-3.617-3.578-3.631l0,0c-1.984-0.014-3.618,1.596-3.632,3.578l-0.184,25.017c-0.003,0.4-0.163,1.147-0.163,1.147
		l0.553,9.975c0,0-7.604-8.661-10.638-10.127c-3.034-1.465-6.396,0.883-4.546,3.474c1.849,2.591,13.709,24.597,13.709,24.597
		l-3.715,33.396L106.348,101.323z"/>
	<path style="fill-rule:evenodd;clip-rule:evenodd;fill:#27C0F0;" d="M0,101.323l2.607-33.191l-2.44-28.479L0.016,19.226
		c-0.014-1.984,1.597-3.617,3.579-3.633l0,0c1.983-0.014,3.617,1.597,3.631,3.579l0.15,20.496l1.514,0.003L8.889,39.55L8.675,10.571
		c-0.015-1.982,1.597-3.617,3.58-3.631l0,0c1.982-0.015,3.616,1.596,3.629,3.58l0.214,28.979c0.001,0.063,0,0.126-0.003,0.188
		l1.569,0.002c-0.036-0.193-0.055-0.396-0.055-0.599L17.385,8.657c-0.015-1.983,1.595-3.616,3.578-3.631l0,0
		c1.983-0.015,3.616,1.596,3.632,3.578l0.223,30.434c0.002,0.229-0.019,0.451-0.059,0.668l1.742,0.002
		c-0.109-0.339-0.169-0.703-0.174-1.078l-0.184-25.015c-0.014-1.983,1.596-3.617,3.577-3.631l0,0
		c1.984-0.014,3.618,1.596,3.632,3.578l0.184,25.017c0.003,0.4,0.163,1.147,0.163,1.147L33.146,49.7c0,0,7.604-8.661,10.638-10.127
		c3.034-1.465,6.395,0.883,4.546,3.474c-1.849,2.591-13.709,24.597-13.709,24.597l3.715,33.396L0,101.323z"/>
	<polygon style="fill-rule:evenodd;clip-rule:evenodd;fill:#1D90B4;" points="68.864,93.373 68.011,101.039 106.348,101.323 
		105.724,93.373 	"/>
	<polygon style="fill-rule:evenodd;clip-rule:evenodd;fill:#1D90B4;" points="0.624,93.373 0,101.323 38.337,101.039 37.484,93.373 
			"/>
</g>
<g>
</g>
<g>
</g>
<g>
</g>
<g>
</g>
<g>
</g>
<g>
</g>
<g>
</g>
<g>
</g>
<g>
</g>
<g>
</g>
<g>
</g>
<g>
</g>
<g>
</g>
<g>
</g>
<g>
</g>
</svg>
