<?xml version="1.0" encoding="iso-8859-1"?>
<!-- Generator: Adobe Illustrator 18.0.0, SVG Export Plug-In . SVG Version: 6.00 Build 0)  -->
<!DOCTYPE svg PUBLIC "-//W3C//DTD SVG 1.1//EN" "http://www.w3.org/Graphics/SVG/1.1/DTD/svg11.dtd">
<svg version="1.1" id="Capa_1" xmlns="http://www.w3.org/2000/svg" xmlns:xlink="http://www.w3.org/1999/xlink" x="0px" y="0px"
	 viewBox="0 0 188.529 188.529" style="enable-background:new 0 0 188.529 188.529;" xml:space="preserve">
<g>
	<g>
		<path style="fill:#CAD961;" d="M86.686,109.221v70.892H65.819c0,0-2.832-38.333-29.106-62.918l10.304-7.974
			c0,0,17.001,8.468,24.214,27.098c0,0,6.698-16.967,4.122-34.717L86.686,109.221z"/>
		<path style="fill:#2D8B3E;" d="M55.775,80.667C39.904,48.259,17.65,61.084,3.739,86.378c-13.91,25.294,13.911,46.933,35.549,40.75
			C60.927,120.946,62.043,93.467,55.775,80.667z"/>
		<path style="fill:#369E47;" d="M86.686,109.221V38.165C30.014,38.165,32.076,109.221,86.686,109.221z"/>
		<path style="fill:#BAC95A;" d="M86.686,109.221v70.892h20.867c0,0,2.832-38.333,29.107-62.918l-10.304-7.974
			c0,0-17.002,8.468-24.215,27.098c0,0-6.697-16.967-4.121-34.717L86.686,109.221z"/>
		<path style="fill:#237C36;" d="M117.598,80.667c15.87-32.408,38.125-19.583,52.035,5.711c13.91,25.294-13.91,46.933-35.549,40.75
			C112.447,120.946,111.331,93.467,117.598,80.667z"/>
		<path style="fill:#2D8B3E;" d="M86.686,109.221V38.165C143.358,38.165,141.298,109.221,86.686,109.221z"/>
	</g>
	<g>
		<path style="fill:#FFC417;" d="M146.048,152.525L141.217,1.133c-30.382,0.97-29.84,98.621-25.342,126.581
			C120.372,155.675,146.048,152.525,146.048,152.525z"/>
		<path style="fill:#B2B946;" d="M146.573,169.002l0.575,18.023c0,0-9.268,0.296-11.844,0.378
			c-2.574,0.082-0.788-24.718-0.788-24.718L146.573,169.002z"/>
		<path style="fill:#CDD451;" d="M146.048,152.525l0.525,16.478c-42.225,1.348-54.785-85.364-43.545-120.774
			C103.028,48.228,112.768,127.298,146.048,152.525z"/>
		<circle style="fill:#FAA81F;" cx="129.937" cy="99.946" r="2.576"/>
		<circle style="fill:#FAA81F;" cx="124.562" cy="76.922" r="1.546"/>
		<circle style="fill:#FAA81F;" cx="131.082" cy="55.065" r="3.091"/>
		<circle style="fill:#FAA81F;" cx="133.35" cy="29.219" r="2.576"/>
		<circle style="fill:#FAA81F;" cx="135.245" cy="120.91" r="3.091"/>
		<circle style="fill:#FAA81F;" cx="135.091" cy="83.802" r="2.576"/>
		<circle style="fill:#FAA81F;" cx="135.771" cy="16.255" r="1.803"/>
		<circle style="fill:#FAA81F;" cx="124.859" cy="37.737" r="1.545"/>
		<path style="fill:#FCB31D;" d="M146.048,152.525L141.217,1.133c30.381-0.97,36.065,96.518,33.36,124.708
			C171.872,154.031,146.048,152.525,146.048,152.525z"/>
		<path style="fill:#979F3C;" d="M146.573,169.002l0.575,18.023c0,0,9.27-0.296,11.844-0.378c2.574-0.083-0.789-24.718-0.789-24.718
			L146.573,169.002z"/>
		<path style="fill:#B2B946;" d="M146.048,152.525l0.525,16.478c42.225-1.347,49.231-88.684,35.756-123.305
			C182.329,45.697,177.65,125.228,146.048,152.525z"/>
		<circle style="fill:#F68B23;" cx="158.773" cy="99.026" r="2.576"/>
		<circle style="fill:#F68B23;" cx="162.668" cy="75.706" r="1.546"/>
		<circle style="fill:#F68B23;" cx="154.769" cy="54.309" r="3.091"/>
		<circle style="fill:#F68B23;" cx="150.858" cy="28.66" r="2.576"/>
		<circle style="fill:#F68B23;" cx="154.812" cy="120.286" r="3.091"/>
		<circle style="fill:#F68B23;" cx="152.599" cy="83.243" r="2.576"/>
		<circle style="fill:#F68B23;" cx="147.614" cy="15.877" r="1.803"/>
		<circle style="fill:#F68B23;" cx="159.874" cy="36.62" r="1.545"/>
	</g>
</g>
<g>
</g>
<g>
</g>
<g>
</g>
<g>
</g>
<g>
</g>
<g>
</g>
<g>
</g>
<g>
</g>
<g>
</g>
<g>
</g>
<g>
</g>
<g>
</g>
<g>
</g>
<g>
</g>
<g>
</g>
</svg>
