<?xml version="1.0" encoding="iso-8859-1"?>
<!-- Generator: Adobe Illustrator 18.0.0, SVG Export Plug-In . SVG Version: 6.00 Build 0)  -->
<!DOCTYPE svg PUBLIC "-//W3C//DTD SVG 1.1//EN" "http://www.w3.org/Graphics/SVG/1.1/DTD/svg11.dtd">
<svg version="1.1" id="Capa_1" xmlns="http://www.w3.org/2000/svg" xmlns:xlink="http://www.w3.org/1999/xlink" x="0px" y="0px"
	 viewBox="0 0 139.162 139.162" style="enable-background:new 0 0 139.162 139.162;" xml:space="preserve">
<g>
	<g>
		<path style="fill:#31BD4C;" d="M104.556,52.036c-1.721-30.57-25.664-53.817-53.48-51.929C23.259,1.999,2.105,28.314,3.825,58.883
			c1.721,30.565,25.664,53.814,53.481,51.926C85.123,108.915,106.276,82.605,104.556,52.036z M11.076,58.391
			C9.605,32.221,27.713,9.697,51.524,8.08c23.813-1.62,44.308,18.28,45.78,44.446c1.474,26.169-16.635,48.694-40.446,50.312
			C33.046,104.456,12.549,84.554,11.076,58.391z"/>
		<path style="fill:#31BD4C;" d="M99.929,59.299c-1.461-25.957-21.794-45.698-45.414-44.092
			c-23.619,1.605-41.583,23.949-40.122,49.905c1.462,25.959,21.793,45.701,45.413,44.095
			C83.426,107.597,101.389,85.257,99.929,59.299z M20.549,64.696c-1.25-22.218,14.128-41.345,34.348-42.722
			c20.22-1.372,37.625,15.525,38.875,37.743c1.252,22.22-14.127,41.348-34.346,42.722C39.206,103.812,21.801,86.916,20.549,64.696z"
			/>
		<polygon style="fill:#31BD4C;" points="123.186,111.588 53.716,110.528 55.285,102.145 123.186,102.145 		"/>
		<rect x="123.186" y="100.145" style="fill:#258E39;" width="2" height="14"/>
	</g>
	<path style="fill:#27C0F0;" d="M133.878,122.334c0,1.733-1.279,3.139-2.855,3.139c-1.578,0-2.856-1.405-2.856-3.139
		c0-1.733,2.856-7.282,2.856-7.282S133.878,120.602,133.878,122.334z"/>
	<path style="fill:#27C0F0;" d="M127.649,130.89c0,1.734-1.278,3.139-2.856,3.139c-1.577,0-2.855-1.404-2.855-3.139
		s2.855-7.282,2.855-7.282S127.649,129.156,127.649,130.89z"/>
	<path style="fill:#27C0F0;" d="M135.435,136.024c0,1.734-1.278,3.138-2.856,3.138c-1.577,0-2.856-1.403-2.856-3.138
		c0-1.732,2.856-7.284,2.856-7.284S135.435,134.291,135.435,136.024z"/>
</g>
<g>
</g>
<g>
</g>
<g>
</g>
<g>
</g>
<g>
</g>
<g>
</g>
<g>
</g>
<g>
</g>
<g>
</g>
<g>
</g>
<g>
</g>
<g>
</g>
<g>
</g>
<g>
</g>
<g>
</g>
</svg>
