<?xml version="1.0" encoding="iso-8859-1"?>
<!-- Generator: Adobe Illustrator 18.0.0, SVG Export Plug-In . SVG Version: 6.00 Build 0)  -->
<!DOCTYPE svg PUBLIC "-//W3C//DTD SVG 1.1//EN" "http://www.w3.org/Graphics/SVG/1.1/DTD/svg11.dtd">
<svg version="1.1" id="Capa_1" xmlns="http://www.w3.org/2000/svg" xmlns:xlink="http://www.w3.org/1999/xlink" x="0px" y="0px"
	 viewBox="0 0 192.05 192.05" style="enable-background:new 0 0 192.05 192.05;" xml:space="preserve">
<g>
	<g>
		<path style="fill:#7C9096;" d="M31.307,47.589c0,0-7.852-9.306-20.791-9.742c-12.941-0.436-19.775,23.99,15.121,37.076
			l1.744-6.253c0,0-20.937-10.468-17.593-17.738c3.345-7.27,18.466,3.635,18.466,3.635L31.307,47.589z"/>
		<path style="fill:#AFC9D0;" d="M77.688,186.296v-112.1c-34.459,0-54.523-19.628-54.523-19.628v115.153
			C23.165,169.721,31.452,186.296,77.688,186.296z"/>
		<path style="fill:#C6D4E1;" d="M77.688,74.196V19.6H48.173v22.318c0,0-25.008,2.326-25.008,12.649
			C23.165,64.89,46.719,74.196,77.688,74.196z"/>
		<path style="fill:#AFC9D0;" d="M77.688,33.446V5.754C35.738,5.754,35.86,33.446,77.688,33.446z"/>
		<path style="fill:#92A8AF;" d="M77.688,28.534V6.72C41.081,6.72,41.187,28.534,77.688,28.534z"/>
		<path style="fill:#7C9096;" d="M77.688,26.097V7.625C43.089,7.625,43.189,26.097,77.688,26.097z"/>
		<path style="fill:#6B7C82;" d="M124.069,47.589c0,0,7.852-9.306,20.792-9.742c12.94-0.436,19.773,23.99-15.121,37.076
			l-1.745-6.253c0,0,20.937-10.468,17.593-17.738c-3.344-7.27-18.465,3.635-18.465,3.635L124.069,47.589z"/>
		<path style="fill:#A1B9C0;" d="M77.688,186.296v-112.1c34.459,0,54.523-19.628,54.523-19.628v115.153
			C132.212,169.721,123.924,186.296,77.688,186.296z"/>
		<path style="fill:#AFC9D0;" d="M77.688,74.196V19.6h29.515v22.318c0,0,25.009,2.326,25.009,12.649
			C132.212,64.89,108.657,74.196,77.688,74.196z"/>
		<path style="fill:#A1B9C0;" d="M77.688,33.446V5.754C119.638,5.754,119.516,33.446,77.688,33.446z"/>
		<path style="fill:#83989F;" d="M77.688,28.534V6.72C114.295,6.72,114.188,28.534,77.688,28.534z"/>
		<path style="fill:#6B7C82;" d="M77.688,26.097V7.625C112.288,7.625,112.187,26.097,77.688,26.097z"/>
		<g>
			<path style="fill:#FFFFFF;" d="M47.446,121.595c0,16.703,13.54,30.242,30.242,30.242V91.352
				C60.986,91.352,47.446,104.893,47.446,121.595z"/>
			<path style="fill:#C6D4E1;" d="M77.688,91.352v60.485c16.702,0,30.242-13.539,30.242-30.242
				C107.931,104.893,94.391,91.352,77.688,91.352z"/>
		</g>
	</g>
	<path style="fill:#AFC9D0;" d="M148.33,171.532c0,0,5.056,7.349,20.521,7.349v-80.84h-23.198L148.33,171.532z"/>
	<path style="fill:#FFFFFF;" d="M151.297,167.368c0,0,4.325,5.915,17.555,5.915v-65.065h-19.845L151.297,167.368z"/>
	<path style="fill:#A1B9C0;" d="M189.373,171.532c0,0-5.056,7.349-20.521,7.349v-80.84h23.198L189.373,171.532z"/>
	<path style="fill:#C6D4E1;" d="M186.406,167.368c0,0-4.325,5.915-17.555,5.915v-65.065h19.845L186.406,167.368z"/>
	<path style="fill:#A1B9C0;" d="M145.653,98.041c0,2.65,10.386,4.798,23.198,4.798v-9.596
		C156.039,93.243,145.653,95.391,145.653,98.041z"/>
	<path style="fill:#92A8AF;" d="M192.05,98.041c0-2.65-10.386-4.798-23.198-4.798v9.596
		C181.664,102.839,192.05,100.691,192.05,98.041z"/>
	<path style="fill:#C6D4E1;" d="M188.695,108.219c0-1.837-8.884-3.326-19.844-3.326v6.652
		C179.812,111.545,188.695,110.055,188.695,108.219z"/>
	<path style="fill:#FFFFFF;" d="M149.007,108.219c0,1.837,8.885,3.326,19.845,3.326v-6.652
		C157.892,104.893,149.007,106.382,149.007,108.219z"/>
</g>
<g>
</g>
<g>
</g>
<g>
</g>
<g>
</g>
<g>
</g>
<g>
</g>
<g>
</g>
<g>
</g>
<g>
</g>
<g>
</g>
<g>
</g>
<g>
</g>
<g>
</g>
<g>
</g>
<g>
</g>
</svg>
