<?xml version="1.0" encoding="iso-8859-1"?>
<!-- Generator: Adobe Illustrator 18.0.0, SVG Export Plug-In . SVG Version: 6.00 Build 0)  -->
<!DOCTYPE svg PUBLIC "-//W3C//DTD SVG 1.1//EN" "http://www.w3.org/Graphics/SVG/1.1/DTD/svg11.dtd">
<svg version="1.1" id="Capa_1" xmlns="http://www.w3.org/2000/svg" xmlns:xlink="http://www.w3.org/1999/xlink" x="0px" y="0px"
	 viewBox="0 0 429 429" style="enable-background:new 0 0 429 429;" xml:space="preserve">
<g>
	
		<line style="fill-rule:evenodd;clip-rule:evenodd;fill:none;stroke:#0D3560;stroke-width:7;stroke-linecap:round;stroke-linejoin:round;stroke-miterlimit:10;" x1="135.25" y1="425.5" x2="294.25" y2="425.5"/>
	<g>
		
			<line style="fill-rule:evenodd;clip-rule:evenodd;fill:none;stroke:#0D3560;stroke-width:4;stroke-linecap:round;stroke-linejoin:round;stroke-miterlimit:10;" x1="144.68" y1="424.418" x2="213.431" y2="128.154"/>
		
			<line style="fill-rule:evenodd;clip-rule:evenodd;fill:none;stroke:#0D3560;stroke-width:4;stroke-linecap:round;stroke-linejoin:round;stroke-miterlimit:10;" x1="282.897" y1="424.418" x2="213.431" y2="128.154"/>
		
			<line style="fill-rule:evenodd;clip-rule:evenodd;fill:none;stroke:#0D3560;stroke-width:4;stroke-linecap:round;stroke-linejoin:round;stroke-miterlimit:10;" x1="213.431" y1="136.351" x2="215.412" y2="422.469"/>
		
			<line style="fill-rule:evenodd;clip-rule:evenodd;fill:none;stroke:#0D3560;stroke-width:4;stroke-linecap:round;stroke-linejoin:round;stroke-miterlimit:10;" x1="182.25" y1="271" x2="245.25" y2="271"/>
		
			<line style="fill-rule:evenodd;clip-rule:evenodd;fill:none;stroke:#0D3560;stroke-width:4;stroke-linecap:round;stroke-linejoin:round;stroke-miterlimit:10;" x1="165.25" y1="332" x2="260.25" y2="332"/>
		
			<line style="fill-rule:evenodd;clip-rule:evenodd;fill:none;stroke:#0D3560;stroke-width:4;stroke-linecap:round;stroke-linejoin:round;stroke-miterlimit:10;" x1="167.61" y1="331.306" x2="281.067" y2="424.418"/>
		
			<line style="fill-rule:evenodd;clip-rule:evenodd;fill:none;stroke:#0D3560;stroke-width:4;stroke-linecap:round;stroke-linejoin:round;stroke-miterlimit:10;" x1="258.546" y1="330.877" x2="144.68" y2="424.418"/>
		
			<line style="fill-rule:evenodd;clip-rule:evenodd;fill:none;stroke:#0D3560;stroke-width:4;stroke-linecap:round;stroke-linejoin:round;stroke-miterlimit:10;" x1="180.602" y1="273.6" x2="258.888" y2="329.207"/>
		
			<line style="fill-rule:evenodd;clip-rule:evenodd;fill:none;stroke:#0D3560;stroke-width:4;stroke-linecap:round;stroke-linejoin:round;stroke-miterlimit:10;" x1="246.565" y1="272.845" x2="166.809" y2="330.877"/>
		
			<line style="fill-rule:evenodd;clip-rule:evenodd;fill:none;stroke:#0D3560;stroke-width:4;stroke-linecap:round;stroke-linejoin:round;stroke-miterlimit:10;" x1="191.937" y1="224.636" x2="243.413" y2="268.698"/>
		
			<line style="fill-rule:evenodd;clip-rule:evenodd;fill:none;stroke:#0D3560;stroke-width:4;stroke-linecap:round;stroke-linejoin:round;stroke-miterlimit:10;" x1="235.742" y1="227.07" x2="182.767" y2="271.432"/>
		<g>
			<circle style="fill-rule:evenodd;clip-rule:evenodd;fill:#FF7047;" cx="213.484" cy="81.21" r="14.741"/>
			<polygon style="fill-rule:evenodd;clip-rule:evenodd;fill:#27C0F0;" points="212.519,0 200.23,0 210.281,52.109 212.519,52.231 
				214.76,52.08 224.81,0 			"/>
			<polygon style="fill-rule:evenodd;clip-rule:evenodd;fill:#27C0F0;" points="270.064,23.265 261.375,14.575 231.717,58.448 
				233.254,60.078 234.883,61.615 278.756,31.956 			"/>
			<polygon style="fill-rule:evenodd;clip-rule:evenodd;fill:#27C0F0;" points="294.25,80.246 294.25,67.956 242.364,78.008 
				242.352,80.247 242.334,82.486 294.25,92.536 			"/>
			<polygon style="fill-rule:evenodd;clip-rule:evenodd;fill:#27C0F0;" points="271.428,137.792 280.119,129.102 236.245,99.443 
				234.617,100.98 233.078,102.609 262.739,146.481 			"/>
			<polygon style="fill-rule:evenodd;clip-rule:evenodd;fill:#27C0F0;" points="214.448,162 226.736,162 216.685,110.101 
				214.448,110.085 212.209,110.078 202.158,162 			"/>
			<polygon style="fill-rule:evenodd;clip-rule:evenodd;fill:#27C0F0;" points="156.903,139.155 165.592,147.844 195.252,103.97 
				193.715,102.343 192.085,100.805 148.214,130.464 			"/>
			<polygon style="fill-rule:evenodd;clip-rule:evenodd;fill:#27C0F0;" points="131.25,82.174 131.25,94.463 183.871,84.412 
				184.248,82.174 183.713,79.934 131.25,69.884 			"/>
			<polygon style="fill-rule:evenodd;clip-rule:evenodd;fill:#27C0F0;" points="155.538,24.63 146.851,33.318 190.724,62.978 
				192.352,61.442 193.889,59.811 164.23,15.939 			"/>
		</g>
		
			<circle style="fill-rule:evenodd;clip-rule:evenodd;fill:none;stroke:#27C0F0;stroke-width:4;stroke-miterlimit:10;" cx="213.484" cy="81.21" r="57.069"/>
		
			<circle style="fill-rule:evenodd;clip-rule:evenodd;fill:none;stroke:#27C0F0;stroke-width:4;stroke-miterlimit:10;" cx="213.484" cy="81.21" r="42.239"/>
		
			<circle style="fill-rule:evenodd;clip-rule:evenodd;fill:none;stroke:#27C0F0;stroke-width:4;stroke-miterlimit:10;" cx="213.484" cy="81.21" r="29.717"/>
	</g>
</g>
<g>
</g>
<g>
</g>
<g>
</g>
<g>
</g>
<g>
</g>
<g>
</g>
<g>
</g>
<g>
</g>
<g>
</g>
<g>
</g>
<g>
</g>
<g>
</g>
<g>
</g>
<g>
</g>
<g>
</g>
</svg>
