<?xml version="1.0" encoding="iso-8859-1"?>
<!-- Generator: Adobe Illustrator 18.0.0, SVG Export Plug-In . SVG Version: 6.00 Build 0)  -->
<!DOCTYPE svg PUBLIC "-//W3C//DTD SVG 1.1//EN" "http://www.w3.org/Graphics/SVG/1.1/DTD/svg11.dtd">
<svg version="1.1" id="Capa_1" xmlns="http://www.w3.org/2000/svg" xmlns:xlink="http://www.w3.org/1999/xlink" x="0px" y="0px"
	 viewBox="0 0 159.568 159.568" style="enable-background:new 0 0 159.568 159.568;" xml:space="preserve">
<g>
	<path style="fill:#EEAD68;" d="M79.775,159.568V9c56.947,0,54.788,117.02,54.788,144.178
		C134.563,153.178,125.488,159.568,79.775,159.568z"/>
	<path style="fill:#F0C283;" d="M79.819,159.568V9C22.872,9,25.031,126.02,25.031,153.178
		C25.031,153.178,34.106,159.568,79.819,159.568z"/>
	<g>
		<path style="fill:#F05046;" d="M79.84,68.739l57.795-57.795C127.649,0.958,123.861-1.387,117.384,0.7
			c-7.561,2.434-40.755,59.697-40.641,62.891C76.857,66.784,79.84,68.739,79.84,68.739z"/>
		<path style="fill:#C03F37;" d="M84.158,64.42l50.878-50.877c-7.805-7.805-9.647-9.648-16.321-7.513
			c-6.34,2.028-36.813,51.616-36.875,54.265C81.777,62.943,84.158,64.42,84.158,64.42z"/>
		<path style="fill:#D6473E;" d="M79.807,68.706l57.795-57.795c9.985,9.985,12.331,13.773,10.244,20.251
			c-2.435,7.561-59.697,40.755-62.891,40.64C81.762,71.687,79.807,68.706,79.807,68.706z"/>
		<path style="fill:#A7352D;" d="M84.125,64.387l50.877-50.878c7.805,7.805,9.647,9.648,7.513,16.321
			c-2.028,6.34-51.616,36.811-54.265,36.875C85.603,66.768,84.125,64.387,84.125,64.387z"/>
	</g>
	<g>
		<path style="fill:#F05046;" d="M79.728,68.784l-57.795,57.795c9.986,9.986,13.774,12.331,20.251,10.245
			c7.561-2.436,40.755-59.698,40.641-62.892C82.71,70.74,79.728,68.784,79.728,68.784z"/>
		<path style="fill:#C03F37;" d="M75.409,73.102L24.531,123.98c7.805,7.804,9.648,9.647,16.322,7.513
			c6.339-2.028,36.812-51.617,36.874-54.265C77.79,74.581,75.409,73.102,75.409,73.102z"/>
		<path style="fill:#D6473E;" d="M79.762,68.818l-57.795,57.795c-9.986-9.986-12.331-13.774-10.245-20.251
			c2.435-7.561,59.698-40.755,62.891-40.641C77.806,65.835,79.762,68.818,79.762,68.818z"/>
		<path style="fill:#A7352D;" d="M75.443,73.136l-50.878,50.877c-7.805-7.804-9.648-9.647-7.513-16.321
			c2.028-6.339,51.617-36.812,54.265-36.874C73.965,70.754,75.443,73.136,75.443,73.136z"/>
	</g>
	<g>
		<path style="fill:#F05046;" d="M79.807,68.818l57.795,57.795c9.985-9.986,12.331-13.774,10.244-20.251
			c-2.435-7.561-59.697-40.755-62.891-40.641C81.762,65.835,79.807,68.818,79.807,68.818z"/>
		<path style="fill:#C03F37;" d="M84.125,73.136l50.877,50.877c7.805-7.804,9.647-9.647,7.513-16.321
			c-2.028-6.339-51.616-36.812-54.265-36.874C85.603,70.754,84.125,73.136,84.125,73.136z"/>
		<path style="fill:#D6473E;" d="M79.84,68.784l57.795,57.795c-9.985,9.986-13.773,12.331-20.251,10.245
			c-7.561-2.436-40.755-59.698-40.641-62.892C76.857,70.74,79.84,68.784,79.84,68.784z"/>
		<path style="fill:#A7352D;" d="M84.158,73.102l50.878,50.878c-7.805,7.804-9.647,9.647-16.321,7.513
			c-6.34-2.028-36.813-51.617-36.875-54.265C81.777,74.581,84.158,73.102,84.158,73.102z"/>
	</g>
	<g>
		<path style="fill:#F05046;" d="M79.762,68.706L21.967,10.911C11.98,20.896,9.636,24.684,11.722,31.162
			c2.435,7.561,59.698,40.755,62.891,40.64C77.806,71.687,79.762,68.706,79.762,68.706z"/>
		<path style="fill:#C03F37;" d="M75.443,64.387L24.565,13.509c-7.805,7.805-9.648,9.648-7.513,16.321
			c2.028,6.34,51.617,36.811,54.265,36.875C73.965,66.768,75.443,64.387,75.443,64.387z"/>
		<path style="fill:#D6473E;" d="M79.728,68.739L21.933,10.944C31.919,0.958,35.707-1.387,42.184,0.7
			c7.561,2.434,40.755,59.697,40.641,62.891C82.71,66.784,79.728,68.739,79.728,68.739z"/>
		<path style="fill:#A7352D;" d="M75.409,64.42L24.531,13.543c7.805-7.805,9.648-9.648,16.322-7.513
			c6.339,2.028,36.812,51.616,36.874,54.265C77.79,62.943,75.409,64.42,75.409,64.42z"/>
	</g>
	<path style="fill:#762B16;" d="M67.583,68.679c0,6.763,5.482,12.245,12.245,12.245v-24.49
		C73.065,56.434,67.583,61.917,67.583,68.679z"/>
	<path style="fill:#762B16;" d="M79.819,159.568v-46.583c-19.266,0.002-20.694,34.819-20.654,46.067
		C65.046,159.372,71.866,159.568,79.819,159.568z"/>
	<path style="fill:#762B16;" d="M92.012,68.679c0,6.763-5.482,12.245-12.245,12.245v-24.49
		C86.529,56.434,92.012,61.917,92.012,68.679z"/>
	<path style="fill:#762B16;" d="M79.775,112.985v46.583c7.952,0,14.773-0.196,20.654-0.516
		C100.47,147.804,99.041,112.987,79.775,112.985z"/>
</g>
<g>
</g>
<g>
</g>
<g>
</g>
<g>
</g>
<g>
</g>
<g>
</g>
<g>
</g>
<g>
</g>
<g>
</g>
<g>
</g>
<g>
</g>
<g>
</g>
<g>
</g>
<g>
</g>
<g>
</g>
</svg>
