<?xml version="1.0" encoding="iso-8859-1"?>
<!-- Generator: Adobe Illustrator 18.0.0, SVG Export Plug-In . SVG Version: 6.00 Build 0)  -->
<!DOCTYPE svg PUBLIC "-//W3C//DTD SVG 1.1//EN" "http://www.w3.org/Graphics/SVG/1.1/DTD/svg11.dtd">
<svg version="1.1" id="Capa_1" xmlns="http://www.w3.org/2000/svg" xmlns:xlink="http://www.w3.org/1999/xlink" x="0px" y="0px"
	 viewBox="0 0 120.78 120.78" style="enable-background:new 0 0 120.78 120.78;" xml:space="preserve">
<g>
	<g>
		<path style="fill-rule:evenodd;clip-rule:evenodd;fill:#FF8400;" d="M64.402,20.052c3.607,10.036-0.872,21.386-10.004,25.351
			c-9.132,3.965-19.461-0.957-23.068-10.993c-3.608-10.037,0.871-21.387,10.003-25.353C50.466,5.094,60.794,10.015,64.402,20.052z"
			/>
		<path style="fill-rule:evenodd;clip-rule:evenodd;fill:#BF6300;" d="M58.454,37.339c-15.279,6.631-26.202-10.662-22.761-23.951
			c-4.982,5.332-6.851,13.627-4.134,21.182c3.607,10.035,13.936,14.957,23.068,10.992c5.552-2.408,9.367-7.555,10.709-13.469
			C63.659,34.231,61.404,36.057,58.454,37.339z"/>
		<path style="fill-rule:evenodd;clip-rule:evenodd;fill:#FF5C00;" d="M41.325,12.28c-0.461,0.325-0.917,0.663-1.383,0.985
			c-0.374,0.26-0.395,1.01-0.011,1.277c1.042,0.72,1.8,0.506,2.833-0.163C44.077,13.536,42.631,11.35,41.325,12.28z"/>
		<path style="fill-rule:evenodd;clip-rule:evenodd;fill:#31BD4C;" d="M41.035,1.415c-1.116,4.438-0.712,8.609,0.656,12.892
			c0.118,0.368,0.658,0.22,0.606-0.164c-0.506-3.834,0.574-8.179,1.801-11.757C44.916,0.005,41.658-1.064,41.035,1.415z"/>
	</g>
	<g>
		<path style="fill-rule:evenodd;clip-rule:evenodd;fill:#FF8400;" d="M93.922,18.853c4.682,9.486,1.48,21.347-7.151,26.492
			c-8.63,5.146-19.423,1.629-24.105-7.855c-4.684-9.487-1.481-21.347,7.15-26.494C78.447,5.851,89.24,9.368,93.922,18.853z"/>
		<path style="fill-rule:evenodd;clip-rule:evenodd;fill:#BF6300;" d="M89.898,36.833c-14.44,8.607-27.18-7.113-25.222-20.76
			c-4.36,5.953-5.305,14.434-1.78,21.574c4.682,9.484,15.475,13.002,24.105,7.855c5.248-3.125,8.471-8.738,9.154-14.789
			C94.726,33.061,92.686,35.171,89.898,36.833z"/>
		<path style="fill-rule:evenodd;clip-rule:evenodd;fill:#FF5C00;" d="M70.161,14.197c-0.422,0.384-0.837,0.777-1.265,1.161
			c-0.343,0.308-0.281,1.055,0.129,1.266c1.114,0.578,1.843,0.266,2.796-0.535C73.03,15.078,71.355,13.101,70.161,14.197z"/>
		<path style="fill-rule:evenodd;clip-rule:evenodd;fill:#31BD4C;" d="M68.682,3.449c-0.623,4.554,0.237,8.641,2.064,12.711
			c0.157,0.351,0.677,0.132,0.583-0.243c-0.923-3.738-0.328-8.196,0.5-11.909C72.38,1.533,69.027,0.906,68.682,3.449z"/>
	</g>
	<g>
		<path style="fill-rule:evenodd;clip-rule:evenodd;fill:#FF9D33;" d="M50.839,28.396c5.055,9.252,2.328,21.254-6.091,26.809
			c-8.418,5.556-19.34,2.561-24.395-6.691c-5.055-9.251-2.329-21.255,6.09-26.81C34.862,16.149,45.785,19.145,50.839,28.396z"/>
		<path style="fill-rule:evenodd;clip-rule:evenodd;fill:#FF8400;" d="M47.528,46.561c-14.083,9.293-27.437-5.801-26.023-19.529
			c-4.121,6.158-4.726,14.676-0.922,21.639c5.055,9.252,15.977,12.248,24.395,6.691c5.119-3.377,8.115-9.135,8.557-15.213
			C52.2,42.563,50.247,44.766,47.528,46.561z"/>
		<path style="fill-rule:evenodd;clip-rule:evenodd;fill:#FF5C00;" d="M26.915,24.884c-0.407,0.402-0.805,0.817-1.216,1.22
			c-0.331,0.324-0.239,1.068,0.178,1.261c1.136,0.523,1.852,0.176,2.772-0.669C29.817,25.626,28.065,23.731,26.915,24.884z"/>
		<path style="fill-rule:evenodd;clip-rule:evenodd;fill:#31BD4C;" d="M25.01,14.218c-0.439,4.578,0.581,8.62,2.569,12.6
			c0.17,0.339,0.682,0.1,0.572-0.274c-1.07-3.688-0.652-8.169,0.026-11.918C28.629,12.127,25.255,11.66,25.01,14.218z"/>
	</g>
	<g>
		<path style="fill-rule:evenodd;clip-rule:evenodd;fill:#FF9D33;" d="M77.33,27.55c5.431,8.99,3.202,21.116-4.979,27.085
			c-8.18,5.97-19.215,3.52-24.645-5.47c-5.432-8.991-3.204-21.118,4.977-27.086C60.862,16.111,71.898,18.561,77.33,27.55z"/>
		<path style="fill-rule:evenodd;clip-rule:evenodd;fill:#FF8400;" d="M74.764,45.872c-13.686,9.988-27.648-4.428-26.802-18.211
			c-3.862,6.355-4.115,14.896-0.027,21.662c5.431,8.99,16.465,11.439,24.645,5.471c4.973-3.629,7.729-9.535,7.92-15.625
			C79.266,41.645,77.407,43.946,74.764,45.872z"/>
		<path style="fill-rule:evenodd;clip-rule:evenodd;fill:#FF5C00;" d="M53.284,25.232c-0.39,0.423-0.77,0.858-1.165,1.279
			c-0.316,0.342-0.195,1.079,0.23,1.252c1.157,0.466,1.856,0.084,2.742-0.806C56.215,25.83,54.386,24.023,53.284,25.232z"/>
		<path style="fill-rule:evenodd;clip-rule:evenodd;fill:#31BD4C;" d="M50.942,14.672c-0.251,4.598,0.936,8.584,3.085,12.46
			c0.184,0.333,0.686,0.065,0.56-0.302c-1.221-3.631-0.989-8.129-0.466-11.908C54.47,12.404,51.081,12.106,50.942,14.672z"/>
	</g>
	<g>
		<path style="fill-rule:evenodd;clip-rule:evenodd;fill:#FF9D33;" d="M104.376,28.322c5.089,9.229,2.405,21.244-5.993,26.836
			c-8.398,5.591-19.331,2.644-24.42-6.586c-5.089-9.229-2.405-21.244,5.991-26.836C88.353,16.143,99.287,19.091,104.376,28.322z"/>
		<path style="fill-rule:evenodd;clip-rule:evenodd;fill:#FF8400;" d="M101.131,46.501c-14.05,9.355-27.458-5.68-26.095-19.414
			c-4.097,6.176-4.672,14.697-0.842,21.643c5.089,9.23,16.021,12.178,24.42,6.586c5.106-3.4,8.081-9.176,8.502-15.252
			C105.787,42.481,103.842,44.696,101.131,46.501z"/>
		<path style="fill-rule:evenodd;clip-rule:evenodd;fill:#FF5C00;" d="M80.439,24.914c-0.405,0.405-0.801,0.82-1.212,1.226
			c-0.329,0.327-0.235,1.07,0.183,1.26c1.138,0.518,1.853,0.169,2.77-0.68C83.344,25.644,81.584,23.757,80.439,24.914z"/>
		<path style="fill-rule:evenodd;clip-rule:evenodd;fill:#31BD4C;" d="M78.495,14.256c-0.423,4.582,0.612,8.618,2.615,12.588
			c0.172,0.342,0.682,0.098,0.571-0.273c-1.082-3.686-0.682-8.168-0.018-11.921C82.106,12.148,78.73,11.698,78.495,14.256z"/>
	</g>
	<g>
		<rect x="10.899" y="39.549" style="fill-rule:evenodd;clip-rule:evenodd;fill:#934B17;" width="98.981" height="81.23"/>
		<rect x="10.899" y="117.583" style="fill-rule:evenodd;clip-rule:evenodd;fill:#4A260C;" width="98.981" height="3.197"/>
		<g>
			<rect x="89.74" y="50.284" style="fill-rule:evenodd;clip-rule:evenodd;fill:#D66D11;" width="14.215" height="59.762"/>
			<rect x="65.574" y="50.284" style="fill-rule:evenodd;clip-rule:evenodd;fill:#D66D11;" width="14.215" height="59.762"/>
			<rect x="41.399" y="50.284" style="fill-rule:evenodd;clip-rule:evenodd;fill:#D66D11;" width="14.226" height="59.762"/>
			<rect x="17.235" y="50.284" style="fill-rule:evenodd;clip-rule:evenodd;fill:#D66D11;" width="14.214" height="59.762"/>
		</g>
	</g>
</g>
<g>
</g>
<g>
</g>
<g>
</g>
<g>
</g>
<g>
</g>
<g>
</g>
<g>
</g>
<g>
</g>
<g>
</g>
<g>
</g>
<g>
</g>
<g>
</g>
<g>
</g>
<g>
</g>
<g>
</g>
</svg>
