<?xml version="1.0" encoding="iso-8859-1"?>
<!-- Generator: Adobe Illustrator 18.0.0, SVG Export Plug-In . SVG Version: 6.00 Build 0)  -->
<!DOCTYPE svg PUBLIC "-//W3C//DTD SVG 1.1//EN" "http://www.w3.org/Graphics/SVG/1.1/DTD/svg11.dtd">
<svg version="1.1" id="Capa_1" xmlns="http://www.w3.org/2000/svg" xmlns:xlink="http://www.w3.org/1999/xlink" x="0px" y="0px"
	 viewBox="0 0 193.962 193.962" style="enable-background:new 0 0 193.962 193.962;" xml:space="preserve">
<g>
	<g>
		<path style="fill:#BF4442;" d="M64.388,28.217c0,0.623-0.432,1.128-1,1.128l0,0c-0.568,0-1-0.505-1-1.128V1.128
			c0-0.623,0.432-1.128,1-1.128l0,0c0.568,0,1,0.505,1,1.128V28.217z"/>
	</g>
	<g>
		<path style="fill:#BF4442;" d="M68.388,28.217c0,0.623-0.432,1.128-1,1.128l0,0c-0.568,0-1-0.505-1-1.128V1.128
			c0-0.623,0.432-1.128,1-1.128l0,0c0.568,0,1,0.505,1,1.128V28.217z"/>
	</g>
	<g>
		<path style="fill:#BF4442;" d="M72.388,28.217c0,0.623-0.432,1.128-1,1.128l0,0c-0.568,0-1-0.505-1-1.128V1.128
			c0-0.623,0.432-1.128,1-1.128l0,0c0.568,0,1,0.505,1,1.128V28.217z"/>
	</g>
	<g>
		<path style="fill:#BF4442;" d="M76.388,28.217c0,0.623-0.432,1.128-1,1.128l0,0c-0.568,0-1-0.505-1-1.128V1.128
			c0-0.623,0.432-1.128,1-1.128l0,0c0.568,0,1,0.505,1,1.128V28.217z"/>
	</g>
	<g>
		<path style="fill:#BF4442;" d="M80.388,28.217c0,0.623-0.432,1.128-1,1.128l0,0c-0.568,0-1-0.505-1-1.128V1.128
			c0-0.623,0.432-1.128,1-1.128l0,0c0.568,0,1,0.505,1,1.128V28.217z"/>
	</g>
	<g>
		<path style="fill:#BF4442;" d="M84.388,28.217c0,0.623-0.432,1.128-1,1.128l0,0c-0.568,0-1-0.505-1-1.128V1.128
			c0-0.623,0.432-1.128,1-1.128l0,0c0.568,0,1,0.505,1,1.128V28.217z"/>
	</g>
	<g>
		<path style="fill:#BF4442;" d="M88.388,28.217c0,0.623-0.432,1.128-1,1.128l0,0c-0.568,0-1-0.505-1-1.128V1.128
			c0-0.623,0.432-1.128,1-1.128l0,0c0.568,0,1,0.505,1,1.128V28.217z"/>
	</g>
	<g>
		<path style="fill:#BF4442;" d="M92.388,28.217c0,0.623-0.432,1.128-1,1.128l0,0c-0.568,0-1-0.505-1-1.128V1.128
			c0-0.623,0.432-1.128,1-1.128l0,0c0.568,0,1,0.505,1,1.128V28.217z"/>
	</g>
	<g>
		<path style="fill:#BF4442;" d="M96.388,28.217c0,0.623-0.432,1.128-1,1.128l0,0c-0.568,0-1-0.505-1-1.128V1.128
			c0-0.623,0.432-1.128,1-1.128l0,0c0.568,0,1,0.505,1,1.128V28.217z"/>
	</g>
	<g>
		<path style="fill:#BF4442;" d="M100.388,28.217c0,0.623-0.432,1.128-1,1.128l0,0c-0.568,0-1-0.505-1-1.128V1.128
			c0-0.623,0.432-1.128,1-1.128l0,0c0.568,0,1,0.505,1,1.128V28.217z"/>
	</g>
	<g>
		<path style="fill:#BF4442;" d="M104.388,28.217c0,0.623-0.432,1.128-1,1.128l0,0c-0.568,0-1-0.505-1-1.128V1.128
			c0-0.623,0.432-1.128,1-1.128l0,0c0.568,0,1,0.505,1,1.128V28.217z"/>
	</g>
	<g>
		<path style="fill:#BF4442;" d="M108.388,28.217c0,0.623-0.432,1.128-1,1.128l0,0c-0.568,0-1-0.505-1-1.128V1.128
			c0-0.623,0.432-1.128,1-1.128l0,0c0.568,0,1,0.505,1,1.128V28.217z"/>
	</g>
	<g>
		<path style="fill:#BF4442;" d="M112.388,28.217c0,0.623-0.432,1.128-1,1.128l0,0c-0.568,0-1-0.505-1-1.128V1.128
			c0-0.623,0.432-1.128,1-1.128l0,0c0.568,0,1,0.505,1,1.128V28.217z"/>
	</g>
	<g>
		<path style="fill:#BF4442;" d="M116.388,28.217c0,0.623-0.432,1.128-1,1.128l0,0c-0.568,0-1-0.505-1-1.128V1.128
			c0-0.623,0.432-1.128,1-1.128l0,0c0.568,0,1,0.505,1,1.128V28.217z"/>
	</g>
	<g>
		<path style="fill:#BF4442;" d="M120.388,28.217c0,0.623-0.432,1.128-1,1.128l0,0c-0.568,0-1-0.505-1-1.128V1.128
			c0-0.623,0.432-1.128,1-1.128l0,0c0.568,0,1,0.505,1,1.128V28.217z"/>
	</g>
	<g>
		<path style="fill:#BF4442;" d="M124.388,28.217c0,0.623-0.432,1.128-1,1.128l0,0c-0.568,0-1-0.505-1-1.128V1.128
			c0-0.623,0.432-1.128,1-1.128l0,0c0.568,0,1,0.505,1,1.128V28.217z"/>
	</g>
	<g>
		<path style="fill:#BF4442;" d="M128.388,28.217c0,0.623-0.432,1.128-1,1.128l0,0c-0.568,0-1-0.505-1-1.128V1.128
			c0-0.623,0.432-1.128,1-1.128l0,0c0.568,0,1,0.505,1,1.128V28.217z"/>
	</g>
	<g>
		<path style="fill:#BF4442;" d="M131.388,28.217c0,0.623-0.432,1.128-1,1.128l0,0c-0.568,0-1-0.505-1-1.128V1.128
			c0-0.623,0.432-1.128,1-1.128l0,0c0.568,0,1,0.505,1,1.128V28.217z"/>
	</g>
	<rect x="91.388" y="28.962" style="fill:#D66D11;" width="10" height="165"/>
	<rect x="91.388" y="28.962" style="opacity:0.3;fill:#23292A;" width="10" height="41"/>
	<path style="fill:#FF5A58;" d="M132.02,55.487v-31.12c-11.075,0-54.777,0-70.079,0v31.12H132.02z"/>
	<rect x="61.941" y="44.628" style="fill:#BF4442;" width="70.079" height="10.859"/>
</g>
<g>
</g>
<g>
</g>
<g>
</g>
<g>
</g>
<g>
</g>
<g>
</g>
<g>
</g>
<g>
</g>
<g>
</g>
<g>
</g>
<g>
</g>
<g>
</g>
<g>
</g>
<g>
</g>
<g>
</g>
</svg>
