<?xml version="1.0" encoding="iso-8859-1"?>
<!-- Generator: Adobe Illustrator 18.0.0, SVG Export Plug-In . SVG Version: 6.00 Build 0)  -->
<!DOCTYPE svg PUBLIC "-//W3C//DTD SVG 1.1//EN" "http://www.w3.org/Graphics/SVG/1.1/DTD/svg11.dtd">
<svg version="1.1" id="Capa_1" xmlns="http://www.w3.org/2000/svg" xmlns:xlink="http://www.w3.org/1999/xlink" x="0px" y="0px"
	 viewBox="0 0 192.856 192.856" style="enable-background:new 0 0 192.856 192.856;" xml:space="preserve">
<g>
	
		<rect x="13.516" y="64.795" transform="matrix(1 -0.0012 0.0012 1 -0.0865 0.0318)" style="fill:#FFC95B;" width="24.643" height="11.089"/>
	
		<rect x="74.427" y="170.675" transform="matrix(0.0012 1 -1 0.0012 267.1651 79.1969)" style="fill:#FFC95B;" width="39.017" height="5.339"/>
	<polygon style="fill:#F05046;" points="96.581,153.833 96.466,59.37 35.681,59.444 35.716,87.783 66.108,87.746 55.1,153.884 	"/>
	<path style="fill:#F05046;" d="M61.269,29.021l35.16-0.043l0.011,8.625l-37.785,0.046l-0.007-6
		C58.645,30.199,59.819,29.022,61.269,29.021z"/>
	<path style="fill:#F05046;" d="M96.429,28.978L96.399,5.156c-8.625,0.011-10.582-5.143-18.744-5.111
		c-2.904,0.012-9.976,28.968-9.976,28.968L96.429,28.978z"/>
	<path style="fill:#FFC95B;" d="M96.439,37.603l0.043,35.32c-28.749,0.035-25.089-29.13-25.097-35.29L96.439,37.603z"/>
	<circle style="fill:#5D3F1A;" cx="85.56" cy="45.964" r="4.358"/>
	
		<rect x="154.697" y="64.623" transform="matrix(-1 0.0012 -0.0012 -1 334.1233 140.1295)" style="fill:#FCB64A;" width="24.643" height="11.09"/>
	
		<rect x="79.663" y="170.669" transform="matrix(0.0012 1 -1 0.0012 272.3886 73.9542)" style="fill:#FCB64A;" width="39.018" height="5.339"/>
	<polygon style="fill:#EE3432;" points="96.479,153.833 96.363,59.37 157.148,59.296 157.183,87.635 126.79,87.672 137.96,153.782 	
		"/>
	<path style="fill:#EE3432;" d="M131.486,28.935l-35.16,0.043l0.011,8.625l37.785-0.046l-0.008-6
		C134.113,30.106,132.937,28.933,131.486,28.935z"/>
	<path style="fill:#EE3432;" d="M96.326,28.978L96.297,5.156c8.625-0.011,10.569-5.168,18.732-5.156
		c2.904,0.004,10.047,28.942,10.047,28.942L96.326,28.978z"/>
	<path style="fill:#FCB64A;" d="M96.337,37.603l0.043,35.321c28.75-0.035,25.018-29.191,25.01-35.353L96.337,37.603z"/>
	<circle style="fill:#462C07;" cx="107.237" cy="45.937" r="4.358"/>
</g>
<g>
</g>
<g>
</g>
<g>
</g>
<g>
</g>
<g>
</g>
<g>
</g>
<g>
</g>
<g>
</g>
<g>
</g>
<g>
</g>
<g>
</g>
<g>
</g>
<g>
</g>
<g>
</g>
<g>
</g>
</svg>
