<?xml version="1.0" encoding="iso-8859-1"?>
<!-- Generator: Adobe Illustrator 18.0.0, SVG Export Plug-In . SVG Version: 6.00 Build 0)  -->
<!DOCTYPE svg PUBLIC "-//W3C//DTD SVG 1.1//EN" "http://www.w3.org/Graphics/SVG/1.1/DTD/svg11.dtd">
<svg version="1.1" id="Capa_1" xmlns="http://www.w3.org/2000/svg" xmlns:xlink="http://www.w3.org/1999/xlink" x="0px" y="0px"
	 viewBox="0 0 214 214" style="enable-background:new 0 0 214 214;" xml:space="preserve">
<g>
	<path style="fill-rule:evenodd;clip-rule:evenodd;fill:#A54D00;" d="M46,169.006c0,5.046-2.246,9.494-7.288,9.494h-0.091
		c-5.042,0-8.621-4.448-8.621-9.494V53.894c0-5.045,3.579-8.394,8.621-8.394h0.091c5.042,0,7.288,3.349,7.288,8.394V169.006z"/>
	<path style="fill-rule:evenodd;clip-rule:evenodd;fill:#D66D11;" d="M38.858,44.918h-0.008c-5.042,0-9.131,4.088-9.131,9.133
		v115.113c0,5.045,4.089,9.135,9.131,9.135h0.008V44.918z"/>
	<circle style="fill-rule:evenodd;clip-rule:evenodd;fill:#743B0E;" cx="38.666" cy="87.3" r="2.4"/>
	<path style="fill-rule:evenodd;clip-rule:evenodd;fill:#A54D00;" d="M187,169.006c0,5.046-2.523,9.494-7.565,9.494h-0.092
		c-5.043,0-9.343-4.448-9.343-9.494V53.894c0-5.045,4.3-8.394,9.343-8.394h0.092c5.042,0,7.565,3.349,7.565,8.394V169.006z"/>
	<path style="fill-rule:evenodd;clip-rule:evenodd;fill:#D66D11;" d="M179.58,44.918h-0.008c-5.043,0-9.132,4.088-9.132,9.133
		v115.113c0,5.045,4.089,9.135,9.132,9.135h0.008V44.918z"/>
	<circle style="fill-rule:evenodd;clip-rule:evenodd;fill:#743B0E;" cx="179.389" cy="87.3" r="2.399"/>
	<rect y="35.5" style="fill-rule:evenodd;clip-rule:evenodd;fill:#D66D11;" width="214" height="67"/>
	<rect y="69.5" style="fill-rule:evenodd;clip-rule:evenodd;fill:#A1520D;" width="214" height="33"/>
	<g>
		<path style="fill:#FFFFFF;" d="M58.672,85.059l-0.429-3.041l2.612-0.557v-22.57l-2.569-0.215v-3.211H76.53l0.899,8.051h-2.655
			l-1.713-4.367h-7.966v8.992h6.767v3.684h-6.767v9.465l6.938,0.984l-0.257,2.785H58.672z"/>
		<path style="fill:#FFFFFF;" d="M76.873,82.402l2.228-0.77l8.65-26.168h4.111l9.123,26.168l1.97,0.77l-0.471,2.656H92.42v-2.527
			l3.769-0.899l-2.056-6.34h-9.165l-1.971,6.34l3.684,0.855v2.57H77.43L76.873,82.402z M86.081,71.609h6.853l-3.512-10.748
			L86.081,71.609z"/>
		<path style="fill:#FFFFFF;" d="M107.665,81.461V58.934l-2.698-0.215v-3.254h9.037c3.968,0,6.966,0.898,8.993,2.697
			c1.827,1.656,2.741,3.912,2.741,6.768c0,1.969-0.5,3.641-1.499,5.01c-1,1.371-2.355,2.414-4.068,3.127l4.154,8.523l2.441,0.514
			v2.955h-5.953l-4.797-10.965c-0.686,0.086-1.386,0.129-2.099,0.129h-1.97v7.281l3.383,0.6v2.955h-9.979l-0.429-2.998
			L107.665,81.461z M121.241,64.887c0-3.826-2.599-5.738-7.794-5.738h-1.499v11.391h1.799c2.54,0,4.481-0.613,5.824-1.842
			C120.685,67.729,121.241,66.457,121.241,64.887z"/>
		<path style="fill:#FFFFFF;" d="M159.957,81.59l2.355,0.471l-0.172,2.998h-8.308l-0.343-3.084l2.483-0.557V59.404l-7.58,25.012
			h-4.925l-7.324-25.227v22.357l2.527,0.471v3.041h-8.266l-0.515-3.041l2.698-0.557V58.977l-2.141-0.215v-3.297h8.822l6.938,23.983
			l7.195-23.983h8.352l0.428,3.297l-2.227,0.344V81.59z"/>
	</g>
	<circle style="fill-rule:evenodd;clip-rule:evenodd;fill:#743B0E;" cx="10.522" cy="44.471" r="2.399"/>
	<circle style="fill-rule:evenodd;clip-rule:evenodd;fill:#743B0E;" cx="10.522" cy="93.417" r="2.399"/>
	<circle style="fill-rule:evenodd;clip-rule:evenodd;fill:#743B0E;" cx="203.862" cy="44.471" r="2.399"/>
	<circle style="fill-rule:evenodd;clip-rule:evenodd;fill:#743B0E;" cx="203.862" cy="93.417" r="2.399"/>
</g>
<g>
</g>
<g>
</g>
<g>
</g>
<g>
</g>
<g>
</g>
<g>
</g>
<g>
</g>
<g>
</g>
<g>
</g>
<g>
</g>
<g>
</g>
<g>
</g>
<g>
</g>
<g>
</g>
<g>
</g>
</svg>
