<?xml version="1.0" encoding="iso-8859-1"?>
<!-- Generator: Adobe Illustrator 18.0.0, SVG Export Plug-In . SVG Version: 6.00 Build 0)  -->
<!DOCTYPE svg PUBLIC "-//W3C//DTD SVG 1.1//EN" "http://www.w3.org/Graphics/SVG/1.1/DTD/svg11.dtd">
<svg version="1.1" id="Capa_1" xmlns="http://www.w3.org/2000/svg" xmlns:xlink="http://www.w3.org/1999/xlink" x="0px" y="0px"
	 viewBox="0 0 171.315 171.315" style="enable-background:new 0 0 171.315 171.315;" xml:space="preserve">
<g>
	<g>
		<path style="fill:#CADC2E;" d="M81.928,91.009c2.871,2.87,4.059,6.338,2.65,7.745c-1.406,1.408-4.875,0.221-7.745-2.652
			c-2.871-2.871-5.128-10.221-5.128-10.221S79.057,88.136,81.928,91.009z"/>
		<path style="fill:#CADC2E;" d="M87.228,91.009c-2.871,2.87-4.057,6.338-2.65,7.745c1.406,1.408,4.874,0.221,7.744-2.652
			c2.873-2.871,5.128-10.221,5.128-10.221S90.098,88.136,87.228,91.009z"/>
	</g>
	<g>
		<path style="fill:#CADC2E;" d="M81.928,120.79c2.871,2.869,4.059,6.337,2.65,7.744c-1.406,1.407-4.875,0.221-7.745-2.65
			c-2.871-2.871-5.128-10.223-5.128-10.223S79.057,117.918,81.928,120.79z"/>
		<path style="fill:#CADC2E;" d="M87.228,120.79c-2.871,2.869-4.057,6.337-2.65,7.744c1.406,1.407,4.874,0.221,7.744-2.65
			c2.873-2.871,5.128-10.223,5.128-10.223S90.098,117.918,87.228,120.79z"/>
	</g>
	<rect x="80.719" y="39.315" style="fill:#31BD4C;" width="7" height="132"/>
	<g>
		<g>
			<path style="fill:#FFDA5B;" d="M92.967,19.409c-0.268,6.887-3.426,12.356-7.055,12.214c-3.629-0.143-6.35-5.841-6.082-12.727
				C80.102,12.01,87.148,0,87.148,0S93.239,12.522,92.967,19.409z"/>
			<path style="fill:#FFDA5B;" d="M102.166,25.77c-3.669,5.835-9.131,8.998-12.207,7.064c-3.074-1.931-2.593-8.227,1.073-14.062
				C94.7,12.937,106.796,6.04,106.796,6.04S105.829,19.933,102.166,25.77z"/>
			<path style="fill:#FFDA5B;" d="M106.966,35.865c-6.088,3.228-12.399,3.248-14.103,0.039c-1.701-3.208,1.851-8.426,7.943-11.654
				c6.085-3.231,20.01-3.176,20.01-3.176S113.052,32.634,106.966,35.865z"/>
			<path style="fill:#FFDA5B;" d="M106.093,47.009c-6.888-0.236-12.369-3.364-12.244-6.997c0.122-3.628,5.804-6.377,12.696-6.143
				c6.884,0.234,18.929,7.222,18.929,7.222S112.98,47.245,106.093,47.009z"/>
			<path style="fill:#FFDA5B;" d="M99.78,56.235c-5.851-3.638-9.041-9.083-7.124-12.169c1.915-3.082,8.212-2.633,14.067,1.004
				c5.855,3.638,12.812,15.702,12.812,15.702S105.633,59.874,99.78,56.235z"/>
			<path style="fill:#FFDA5B;" d="M89.708,61.084c-3.257-6.071-3.31-12.381-0.108-14.102c3.197-1.718,8.431,1.813,11.693,7.886
				c3.262,6.071,3.278,19.996,3.278,19.996S92.967,67.161,89.708,61.084z"/>
			<path style="fill:#FFDA5B;" d="M78.56,60.269c0.204-6.889,3.304-12.383,6.935-12.278c3.629,0.104,6.407,5.774,6.207,12.664
				c-0.201,6.889-7.129,18.971-7.129,18.971S78.357,67.162,78.56,60.269z"/>
			<path style="fill:#FFDA5B;" d="M69.303,54.004c3.61-5.872,9.039-9.091,12.131-7.188c3.096,1.899,2.676,8.201-0.932,14.074
				c-3.609,5.87-15.638,12.885-15.638,12.885S65.692,59.877,69.303,54.004z"/>
			<path style="fill:#FFDA5B;" d="M64.404,43.956c6.056-3.289,12.366-3.375,14.098-0.178c1.736,3.188-1.768,8.439-7.824,11.733
				c-6.058,3.289-19.98,3.374-19.98,3.374S58.343,47.246,64.404,43.956z"/>
			<path style="fill:#FFDA5B;" d="M65.166,32.8c6.889,0.171,12.4,3.245,12.309,6.877c-0.084,3.628-5.74,6.433-12.632,6.27
				c-6.893-0.166-19.002-7.038-19.002-7.038S58.27,32.636,65.166,32.8z"/>
			<path style="fill:#FFDA5B;" d="M71.388,23.514c5.883,3.583,9.131,8.994,7.242,12.097c-1.883,3.104-8.184,2.717-14.079-0.861
				c-5.888-3.583-12.961-15.576-12.961-15.576S65.49,19.933,71.388,23.514z"/>
			<path style="fill:#FFDA5B;" d="M81.41,18.565c3.316,6.039,3.431,12.352,0.247,14.098c-3.179,1.75-8.449-1.725-11.774-7.767
				c-3.318-6.041-3.468-19.963-3.468-19.963S78.086,12.521,81.41,18.565z"/>
		</g>
		<circle style="fill:#FF8400;" cx="85.663" cy="39.806" r="22.766"/>
	</g>
</g>
<g>
</g>
<g>
</g>
<g>
</g>
<g>
</g>
<g>
</g>
<g>
</g>
<g>
</g>
<g>
</g>
<g>
</g>
<g>
</g>
<g>
</g>
<g>
</g>
<g>
</g>
<g>
</g>
<g>
</g>
</svg>
