<?xml version="1.0" encoding="iso-8859-1"?>
<!-- Generator: Adobe Illustrator 18.0.0, SVG Export Plug-In . SVG Version: 6.00 Build 0)  -->
<!DOCTYPE svg PUBLIC "-//W3C//DTD SVG 1.1//EN" "http://www.w3.org/Graphics/SVG/1.1/DTD/svg11.dtd">
<svg version="1.1" id="Capa_1" xmlns="http://www.w3.org/2000/svg" xmlns:xlink="http://www.w3.org/1999/xlink" x="0px" y="0px"
	 viewBox="0 0 205.36 205.36" style="enable-background:new 0 0 205.36 205.36;" xml:space="preserve">
<g>
	<g>
		<polygon style="fill:#3C2D27;" points="53.609,68.551 34.196,68.551 30.332,78.629 53.609,78.629 		"/>
		<polygon style="fill:#2A1C16;" points="30.332,78.629 26.469,88.708 53.609,88.708 53.609,78.629 		"/>
	</g>
	<path style="fill:#F5802D;" d="M193.973,151.849H44.822c0,0,0-113.244,0-122.131s48.687-5.796,57.187-5.796
		c8.5,0,26.661,21.638,26.661,21.638v46.754c0,0,47.505,0,51.52,0C197.45,92.314,193.973,127.693,193.973,151.849z"/>
	<path style="fill:#F15D2C;" d="M193.973,151.849c0-24.156,3.478-59.535-13.781-59.535c-4.016,0-51.521,0-51.521,0v59.535H193.973z"
		/>
	<g>
		<path style="fill:#3C2D27;" d="M23.57,137.137c0-11.737,9.515-21.252,21.252-21.252v-23.57C20.067,92.314,0,112.382,0,137.137
			c0,24.754,20.067,44.822,44.822,44.822v-23.57C33.085,158.389,23.57,148.873,23.57,137.137z"/>
		<path style="fill:#2A1C16;" d="M44.822,92.314v23.57c11.737,0,21.252,9.515,21.252,21.252c0,11.737-9.515,21.252-21.252,21.252
			v23.57c24.755,0,44.822-20.068,44.822-44.822C89.645,112.382,69.577,92.314,44.822,92.314z"/>
		<path style="fill:#F5802D;" d="M23.57,137.137c0,11.737,9.515,21.252,21.252,21.252v-6.54c-8.125,0-14.712-6.587-14.712-14.712
			c0-8.126,6.587-14.712,14.712-14.712v-6.539C33.085,115.885,23.57,125.399,23.57,137.137z"/>
		<path style="fill:#F15D2C;" d="M59.535,137.137c0,8.125-6.588,14.712-14.713,14.712v6.54c11.737,0,21.252-9.515,21.252-21.252
			c0-11.737-9.515-21.252-21.252-21.252v6.539C52.947,122.424,59.535,129.011,59.535,137.137z"/>
		<path style="fill:#F15D2C;" d="M36.035,137.137c0-4.853,3.934-8.788,8.787-8.788v-5.925c-8.125,0-14.712,6.587-14.712,14.712
			c0,8.125,6.587,14.712,14.712,14.712v-5.925C39.969,145.924,36.035,141.99,36.035,137.137z"/>
		<path style="fill:#EF4623;" d="M59.535,137.137c0-8.126-6.588-14.712-14.713-14.712v5.925c4.854,0,8.787,3.935,8.787,8.788
			c0,4.853-3.934,8.788-8.787,8.788v5.925C52.947,151.849,59.535,145.262,59.535,137.137z"/>
		<path style="fill:#2A1C16;" d="M53.609,137.137c0-4.853-3.934-8.788-8.787-8.788v17.575
			C49.676,145.924,53.609,141.99,53.609,137.137z"/>
		<path style="fill:#3C2D27;" d="M36.035,137.137c0,4.853,3.934,8.788,8.787,8.788v-17.575
			C39.969,128.349,36.035,132.284,36.035,137.137z"/>
	</g>
	<g>
		<path style="fill:#3C2D27;" d="M164.349,154.138c0-7.285,5.906-13.191,13.191-13.191v-14.63
			c-15.365,0-27.821,12.456-27.821,27.821s12.456,27.821,27.821,27.821v-14.63C170.255,167.329,164.349,161.423,164.349,154.138z"/>
		<path style="fill:#2A1C16;" d="M177.54,126.317v14.63c7.285,0,13.19,5.906,13.19,13.191s-5.905,13.191-13.19,13.191v14.63
			c15.364,0,27.82-12.456,27.82-27.821S192.904,126.317,177.54,126.317z"/>
		<path style="fill:#F5802D;" d="M164.349,154.138c0,7.285,5.906,13.191,13.191,13.191v-4.059c-5.044,0-9.132-4.088-9.132-9.132
			s4.088-9.132,9.132-9.132v-4.059C170.255,140.947,164.349,146.853,164.349,154.138z"/>
		<path style="fill:#F15D2C;" d="M186.672,154.138c0,5.044-4.089,9.132-9.132,9.132v4.059c7.285,0,13.19-5.906,13.19-13.191
			s-5.905-13.191-13.19-13.191v4.059C182.583,145.006,186.672,149.095,186.672,154.138z"/>
		<path style="fill:#F15D2C;" d="M172.085,154.138c0-3.012,2.442-5.454,5.455-5.454v-3.678c-5.044,0-9.132,4.088-9.132,9.132
			s4.088,9.132,9.132,9.132v-3.677C174.527,159.593,172.085,157.15,172.085,154.138z"/>
		<path style="fill:#EF4623;" d="M186.672,154.138c0-5.044-4.089-9.132-9.132-9.132v3.678c3.012,0,5.454,2.442,5.454,5.454
			c0,3.012-2.442,5.455-5.454,5.455v3.677C182.583,163.27,186.672,159.182,186.672,154.138z"/>
		<path style="fill:#2A1C16;" d="M182.994,154.138c0-3.012-2.442-5.454-5.454-5.454v10.909
			C180.552,159.593,182.994,157.15,182.994,154.138z"/>
		<path style="fill:#3C2D27;" d="M172.085,154.138c0,3.012,2.442,5.455,5.455,5.455v-10.909
			C174.527,148.684,172.085,151.126,172.085,154.138z"/>
	</g>
	<rect x="145.771" y="72.222" style="fill:#3C2D27;" width="5.216" height="32.973"/>
	<rect x="150.987" y="72.222" style="fill:#2A1C16;" width="5.215" height="32.973"/>
	<rect x="161.465" y="79.048" style="fill:#3C2D27;" width="3.037" height="26.146"/>
	<rect x="164.502" y="79.048" style="fill:#2A1C16;" width="3.037" height="26.146"/>
	<g>
		<path style="fill:#FFFFFF;" d="M104.972,49.109v24.329c0,4.023,3.262,7.284,7.284,7.284V41.825
			C108.233,41.825,104.972,45.086,104.972,49.109z"/>
		<path style="fill:#D1EEFC;" d="M112.256,41.825v38.898c4.023,0,7.285-3.261,7.285-7.284V49.109
			C119.541,45.086,116.279,41.825,112.256,41.825z"/>
	</g>
	<g>
		<path style="fill:#FFFFFF;" d="M67.362,41.825c-5.122,0-9.273,4.152-9.273,9.274v20.35c0,5.122,4.151,9.274,9.273,9.274h11.85
			V41.825H67.362z"/>
		<path style="fill:#D1EEFC;" d="M91.062,41.825h-11.85v38.898h11.85c5.121,0,9.273-4.152,9.273-9.274v-20.35
			C100.335,45.977,96.183,41.825,91.062,41.825z"/>
	</g>
</g>
<g>
</g>
<g>
</g>
<g>
</g>
<g>
</g>
<g>
</g>
<g>
</g>
<g>
</g>
<g>
</g>
<g>
</g>
<g>
</g>
<g>
</g>
<g>
</g>
<g>
</g>
<g>
</g>
<g>
</g>
</svg>
