<?xml version="1.0" encoding="iso-8859-1"?>
<!-- Generator: Adobe Illustrator 18.0.0, SVG Export Plug-In . SVG Version: 6.00 Build 0)  -->
<!DOCTYPE svg PUBLIC "-//W3C//DTD SVG 1.1//EN" "http://www.w3.org/Graphics/SVG/1.1/DTD/svg11.dtd">
<svg version="1.1" id="Capa_1" xmlns="http://www.w3.org/2000/svg" xmlns:xlink="http://www.w3.org/1999/xlink" x="0px" y="0px"
	 viewBox="0 0 78 78" style="enable-background:new 0 0 78 78;" xml:space="preserve">
<g>
	<path style="fill:#FFDA5B;" d="M36.565,53.108c2.604,2.604,3.591,5.837,2.207,7.222c-1.385,1.384-4.618,0.396-7.22-2.205
		c-2.604-2.605-3.61-8.627-3.61-8.627S33.962,50.507,36.565,53.108z"/>
	<path style="fill:#FFDA5B;" d="M36.565,43.468c2.604,2.604,3.591,5.837,2.207,7.222c-1.385,1.385-4.618,0.396-7.22-2.205
		c-2.604-2.604-3.61-8.627-3.61-8.627S33.962,40.865,36.565,43.468z"/>
	<path style="fill:#FFDA5B;" d="M36.565,33.828c2.604,2.603,3.591,5.835,2.207,7.221c-1.385,1.384-4.618,0.396-7.22-2.206
		c-2.604-2.604-3.61-8.626-3.61-8.626S33.962,31.225,36.565,33.828z"/>
	<path style="fill:#FFDA5B;" d="M36.565,24.187c2.604,2.604,3.591,5.837,2.207,7.221c-1.385,1.385-4.618,0.398-7.22-2.204
		c-2.604-2.605-3.61-8.627-3.61-8.627S33.962,21.584,36.565,24.187z"/>
	<path style="fill:#FFDA5B;" d="M36.565,14.546c2.604,2.604,3.591,5.837,2.207,7.222c-1.385,1.385-4.618,0.397-7.22-2.205
		c-2.604-2.604-3.61-8.627-3.61-8.627S33.962,11.943,36.565,14.546z"/>
	<path style="fill:#FFDA5B;" d="M36.565,4.905c2.604,2.603,3.591,5.836,2.207,7.222c-1.385,1.384-4.618,0.396-7.22-2.206
		c-2.604-2.605-3.61-8.626-3.61-8.626S33.962,2.303,36.565,4.905z"/>
	<path style="fill:#FFDA5B;" d="M41.434,53.108c-2.603,2.604-3.591,5.837-2.206,7.222c1.384,1.384,4.618,0.396,7.22-2.205
		c2.604-2.605,3.611-8.627,3.611-8.627S44.037,50.507,41.434,53.108z"/>
	<path style="fill:#FFDA5B;" d="M41.434,43.468c-2.603,2.604-3.591,5.837-2.206,7.222c1.384,1.385,4.618,0.396,7.22-2.205
		c2.604-2.604,3.611-8.627,3.611-8.627S44.037,40.865,41.434,43.468z"/>
	<path style="fill:#FFDA5B;" d="M41.434,33.828c-2.603,2.603-3.591,5.835-2.206,7.221c1.384,1.384,4.618,0.396,7.22-2.206
		c2.604-2.604,3.611-8.626,3.611-8.626S44.037,31.225,41.434,33.828z"/>
	<path style="fill:#FFDA5B;" d="M41.434,24.187c-2.603,2.604-3.591,5.837-2.206,7.221c1.384,1.385,4.618,0.398,7.22-2.204
		c2.604-2.605,3.611-8.627,3.611-8.627S44.037,21.584,41.434,24.187z"/>
	<path style="fill:#FFDA5B;" d="M41.434,14.546c-2.603,2.604-3.591,5.837-2.206,7.222c1.384,1.385,4.618,0.397,7.22-2.205
		c2.604-2.604,3.611-8.627,3.611-8.627S44.037,11.943,41.434,14.546z"/>
	<path style="fill:#FFDA5B;" d="M41.434,4.905c-2.603,2.603-3.591,5.836-2.206,7.222c1.384,1.384,4.618,0.396,7.22-2.206
		c2.604-2.605,3.611-8.626,3.611-8.626S44.037,2.303,41.434,4.905z"/>
	<path style="fill:#FFDA5B;" d="M39.583,77.036c0,0.532-0.432,0.964-0.964,0.964h-0.072c-0.532,0-0.964-0.432-0.964-0.964V0.964
		C37.583,0.432,38.015,0,38.547,0h0.072c0.532,0,0.964,0.432,0.964,0.964V77.036z"/>
</g>
<g>
</g>
<g>
</g>
<g>
</g>
<g>
</g>
<g>
</g>
<g>
</g>
<g>
</g>
<g>
</g>
<g>
</g>
<g>
</g>
<g>
</g>
<g>
</g>
<g>
</g>
<g>
</g>
<g>
</g>
</svg>
